CalSansText-Medium.ufo
<glyph name="two" format="2">
  <advance width="593.05"/>
  <unicode hex="0032"/>
  <outline>
    <contour>
      <point x="43.775000000000006" y="0.0" type="line"/>
      <point x="521.775" y="0.0" type="line"/>
      <point x="521.775" y="97.275" type="line"/>
      <point x="246.75" y="95.275" type="line"/>
      <point x="246.75" y="98.275" type="line"/>
      <point x="266.75" y="109.275"/>
      <point x="303.75" y="146.325"/>
      <point x="333.8" y="183.8" type="curve" smooth="yes"/>
      <point x="439.45" y="314.82500000000005" type="line" smooth="yes"/>
      <point x="494.9" y="382.225"/>
      <point x="516.2" y="435.575"/>
      <point x="516.2" y="497.35" type="curve" smooth="yes"/>
      <point x="516.2" y="610.325"/>
      <point x="424.65" y="713.0"/>
      <point x="282.275" y="713.0" type="curve" smooth="yes"/>
      <point x="142.475" y="713.0"/>
      <point x="43.775000000000006" y="614.0"/>
      <point x="43.775000000000006" y="470.0" type="curve"/>
      <point x="157.8" y="470.0" type="line"/>
      <point x="157.8" y="561.95"/>
      <point x="208.97500000000002" y="610.825"/>
      <point x="280.275" y="610.825" type="curve" smooth="yes"/>
      <point x="352.1" y="610.825"/>
      <point x="400.6" y="561.95"/>
      <point x="400.6" y="489.875" type="curve" smooth="yes"/>
      <point x="400.6" y="441.625"/>
      <point x="371.55" y="390.275"/>
      <point x="323.25" y="336.025" type="curve" smooth="yes"/>
      <point x="43.775000000000006" y="16.0" type="line"/>
    </contour>
  </outline>
</glyph>
<glyph name="L" format="2">
  <advance width="527.075"/>
  <unicode hex="004C"/>
  <anchor x="282.5" y="0.0" name="bottom"/>
  <anchor x="307.5" y="370.0" name="center"/>
  <anchor x="470.5" y="0.0" name="ogonek"/>
  <anchor x="133.39999999999998" y="700.0" name="top"/>
  <anchor x="297.5" y="700.0" name="topright"/>
  <outline>
    <contour>
      <point x="81.05000000000001" y="0.0" type="line"/>
      <point x="471.025" y="0.0" type="line"/>
      <point x="471.025" y="104.025" type="line"/>
      <point x="190.60000000000002" y="104.025" type="line"/>
      <point x="190.60000000000002" y="700.0" type="line"/>
      <point x="81.05000000000001" y="700.0" type="line"/>
    </contour>
  </outline>
</glyph>
<glyph name="Z" format="2">
  <advance width="643.2750000000001"/>
  <unicode hex="005A"/>
  <anchor x="321.9" y="0.0" name="bottom"/>
  <anchor x="321.9" y="350.0" name="center"/>
  <anchor x="321.9" y="700.0" name="top"/>
  <outline>
    <contour>
      <point x="41.05" y="0.0" type="line"/>
      <point x="598.2249999999999" y="0.0" type="line"/>
      <point x="598.2249999999999" y="103.07499999999999" type="line"/>
      <point x="215.5" y="103.07499999999999" type="line"/>
      <point x="215.5" y="105.6" type="line"/>
      <point x="228.975" y="116.975"/>
      <point x="241.02499999999998" y="131.975"/>
      <point x="259.95" y="160.0" type="curve" smooth="yes"/>
      <point x="598.2249999999999" y="685.0" type="line"/>
      <point x="598.2249999999999" y="700.0" type="line"/>
      <point x="60.05" y="700.0" type="line"/>
      <point x="60.05" y="595.975" type="line"/>
      <point x="419.625" y="595.975" type="line"/>
      <point x="419.625" y="593.45" type="line"/>
      <point x="407.1" y="583.5"/>
      <point x="396.0" y="569.45"/>
      <point x="378.125" y="542.425" type="curve" smooth="yes"/>
      <point x="41.05" y="15.0" type="line"/>
    </contour>
  </outline>
</glyph>
<glyph name="backslash" format="2">
  <advance width="497.025"/>
  <unicode hex="005C"/>
  <outline>
    <contour>
      <point x="334.20000000000005" y="-13.0" type="line"/>
      <point x="443.35" y="-13.0" type="line"/>
      <point x="169.825" y="740.0" type="line"/>
      <point x="58.675000000000004" y="740.0" type="line"/>
    </contour>
  </outline>
</glyph>
<glyph name="a" format="2">
  <advance width="630.9"/>
  <unicode hex="0061"/>
  <anchor x="302.025" y="0.0" name="bottom"/>
  <anchor x="454.775" y="0.0" name="ogonek"/>
  <anchor x="297.075" y="497.125" name="top"/>
  <outline>
    <contour>
      <point x="285.275" y="-13.0" type="curve" smooth="yes"/>
      <point x="367.775" y="-13.0"/>
      <point x="425.9" y="26.775"/>
      <point x="451.725" y="84.5" type="curve"/>
      <point x="457.725" y="84.5" type="line"/>
      <point x="457.725" y="0.0" type="line"/>
      <point x="559.8499999999999" y="0.0" type="line"/>
      <point x="559.8499999999999" y="497.125" type="line"/>
      <point x="457.725" y="497.125" type="line"/>
      <point x="457.725" y="413.25" type="line"/>
      <point x="451.725" y="413.25" type="line"/>
      <point x="425.9" y="470.875"/>
      <point x="365.67499999999995" y="510.125"/>
      <point x="285.275" y="510.125" type="curve" smooth="yes"/>
      <point x="141.0" y="510.125"/>
      <point x="37.900000000000006" y="394.575"/>
      <point x="37.900000000000006" y="247.79999999999998" type="curve" smooth="yes"/>
      <point x="37.900000000000006" y="101.5"/>
      <point x="141.0" y="-13.0"/>
    </contour>
    <contour>
      <point x="299.92499999999995" y="84.275" type="curve" smooth="yes"/>
      <point x="206.225" y="84.275"/>
      <point x="144.025" y="154.725"/>
      <point x="144.025" y="248.8" type="curve" smooth="yes"/>
      <point x="144.025" y="343.45000000000005"/>
      <point x="206.225" y="412.32500000000005"/>
      <point x="299.92499999999995" y="412.32500000000005" type="curve" smooth="yes"/>
      <point x="392.05" y="412.32500000000005"/>
      <point x="455.29999999999995" y="337.15"/>
      <point x="455.29999999999995" y="247.79999999999998" type="curve" smooth="yes"/>
      <point x="455.29999999999995" y="155.77499999999998"/>
      <point x="392.05" y="84.275"/>
    </contour>
  </outline>
</glyph>
<glyph name="ordfeminine" format="2">
  <advance width="529.2249999999999"/>
  <unicode hex="00AA"/>
  <outline>
    <contour>
      <point x="244.15" y="310.475" type="curve" smooth="yes"/>
      <point x="306.6" y="310.475"/>
      <point x="344.225" y="338.825"/>
      <point x="367.32500000000005" y="380.225" type="curve"/>
      <point x="371.375" y="380.225" type="line"/>
      <point x="371.375" y="320.0" type="line"/>
      <point x="454.125" y="320.0" type="line"/>
      <point x="454.125" y="703.425" type="line"/>
      <point x="370.425" y="703.425" type="line"/>
      <point x="370.425" y="644.7750000000001" type="line"/>
      <point x="366.375" y="644.7750000000001" type="line"/>
      <point x="343.275" y="685.175"/>
      <point x="304.075" y="713.0"/>
      <point x="244.15" y="713.0" type="curve" smooth="yes"/>
      <point x="135.575" y="713.0"/>
      <point x="52.15" y="625.675"/>
      <point x="52.15" y="511.0" type="curve" smooth="yes"/>
      <point x="52.15" y="395.325"/>
      <point x="135.575" y="310.475"/>
    </contour>
    <contour>
      <point x="258.65" y="389.85" type="curve" smooth="yes"/>
      <point x="188.05" y="389.85"/>
      <point x="143.65" y="443.725"/>
      <point x="143.65" y="512.0" type="curve" smooth="yes"/>
      <point x="143.65" y="580.275"/>
      <point x="188.05" y="633.15"/>
      <point x="258.65" y="633.15" type="curve" smooth="yes"/>
      <point x="328.29999999999995" y="633.15"/>
      <point x="374.175" y="575.55"/>
      <point x="374.175" y="511.0" type="curve" smooth="yes"/>
      <point x="374.175" y="443.825"/>
      <point x="328.29999999999995" y="389.85"/>
    </contour>
    <contour>
      <point x="74.35" y="180.10000000000002" type="line"/>
      <point x="454.125" y="180.10000000000002" type="line"/>
      <point x="454.125" y="256.0" type="line"/>
      <point x="74.35" y="256.0" type="line"/>
    </contour>
  </outline>
</glyph>
<glyph name="Lslash" format="2">
  <advance width="532.325"/>
  <unicode hex="0141"/>
  <anchor x="287.75" y="0.0" name="bottom"/>
  <anchor x="312.75" y="370.0" name="center"/>
  <anchor x="475.75" y="0.0" name="ogonek"/>
  <anchor x="138.64999999999998" y="700.0" name="top"/>
  <anchor x="302.75" y="700.0" name="topright"/>
  <outline>
    <contour>
      <point x="13.15" y="214.1" type="line"/>
      <point x="134.65" y="298.75" type="line"/>
      <point x="144.65" y="297.8" type="line"/>
      <point x="315.65" y="409.79999999999995" type="line"/>
      <point x="315.65" y="524.45" type="line"/>
      <point x="148.55" y="405.45" type="line"/>
      <point x="134.65" y="406.4" type="line"/>
      <point x="13.15" y="321.75" type="line"/>
    </contour>
    <component base="L" xOffset="5.25"/>
  </outline>
</glyph>
<glyph name="jdotless" format="2">
  <advance width="248.22500000000002"/>
  <unicode hex="0237"/>
  <anchor x="33.4" y="-233.0" name="bottom"/>
  <anchor x="47.400000000000006" y="-233.0" name="ogonek"/>
  <anchor x="123.875" y="497.125" name="top"/>
  <outline>
    <contour>
      <point x="25.525" y="-233.0" type="curve" smooth="yes"/>
      <point x="119.07499999999999" y="-233.0"/>
      <point x="177.175" y="-178.925"/>
      <point x="177.175" y="-75.925" type="curve" smooth="yes"/>
      <point x="177.175" y="497.125" type="line"/>
      <point x="71.05000000000001" y="497.125" type="line"/>
      <point x="71.05000000000001" y="-71.025" type="line" smooth="yes"/>
      <point x="71.05000000000001" y="-118.725"/>
      <point x="47.175" y="-137.3"/>
      <point x="10.874999999999998" y="-137.3" type="curve" smooth="yes"/>
      <point x="-4.175000000000001" y="-137.3"/>
      <point x="-16.125" y="-135.3"/>
      <point x="-32.275" y="-129.775" type="curve"/>
      <point x="-48.125" y="-223.525" type="line"/>
      <point x="-23.650000000000002" y="-230.0"/>
      <point x="-0.27500000000000036" y="-233.0"/>
    </contour>
  </outline>
</glyph>
<glyph name="hookabovecomb" format="2">
  <unicode hex="0309"/>
  <anchor x="0.0" y="497.125" name="_top"/>
  <anchor x="0.0" y="682.425" name="top"/>
  <outline>
    <contour>
      <point x="-30.9" y="546.175" type="curve"/>
      <point x="34.6" y="546.175" type="line"/>
      <point x="57.025000000000006" y="560.7"/>
      <point x="67.925" y="587.075"/>
      <point x="67.925" y="615.825" type="curve" smooth="yes"/>
      <point x="67.925" y="664.15"/>
      <point x="30.375" y="704.05"/>
      <point x="-34.15" y="704.05" type="curve" smooth="yes"/>
      <point x="-64.9" y="704.05"/>
      <point x="-93.85" y="696.575"/>
      <point x="-117.225" y="677.625" type="curve"/>
      <point x="-80.94999999999999" y="620.7" type="line"/>
      <point x="-68.05" y="629.7"/>
      <point x="-55.0" y="635.75"/>
      <point x="-34.525" y="635.75" type="curve" smooth="yes"/>
      <point x="-11.375" y="635.75"/>
      <point x="10.0" y="622.7"/>
      <point x="10.0" y="599.75" type="curve" smooth="yes"/>
      <point x="10.0" y="579.125"/>
      <point x="-3.05" y="560.5999999999999"/>
    </contour>
  </outline>
</glyph>
<glyph name="breveinvertedcomb" format="2">
  <unicode hex="0311"/>
  <anchor x="0.0" y="497.125" name="_top"/>
  <anchor x="0.0" y="664.75" name="top"/>
  <outline>
    <contour>
      <point x="-146.875" y="553.0" type="curve"/>
      <point x="-69.15" y="553.0" type="line"/>
      <point x="-70.675" y="591.9"/>
      <point x="-45.875" y="623.875"/>
      <point x="0.0" y="623.875" type="curve" smooth="yes"/>
      <point x="44.3" y="623.875"/>
      <point x="70.675" y="591.9"/>
      <point x="69.15" y="553.0" type="curve"/>
      <point x="146.875" y="553.0" type="line"/>
      <point x="146.875" y="634.75"/>
      <point x="88.55" y="690.2750000000001"/>
      <point x="0.0" y="690.2750000000001" type="curve" smooth="yes"/>
      <point x="-89.025" y="690.2750000000001"/>
      <point x="-146.875" y="634.75"/>
    </contour>
  </outline>
</glyph>
<glyph name="macronbelowcomb" format="2">
  <unicode hex="0331"/>
  <anchor x="0.0" y="0.0" name="_bottom"/>
  <outline>
    <contour>
      <point x="-143.55" y="-159.425" type="line"/>
      <point x="143.55" y="-159.425" type="line"/>
      <point x="143.55" y="-89.375" type="line"/>
      <point x="-143.55" y="-89.375" type="line"/>
    </contour>
  </outline>
</glyph>
<glyph name="Germandbls" format="2">
  <advance width="706.325"/>
  <unicode hex="1E9E"/>
  <outline>
    <contour>
      <point x="431.275" y="-13.0" type="curve" smooth="yes"/>
      <point x="586.0" y="-13.0"/>
      <point x="677.0" y="84.775"/>
      <point x="677.0" y="208.85" type="curve" smooth="yes"/>
      <point x="677.0" y="300.275"/>
      <point x="624.05" y="398.17499999999995"/>
      <point x="497.54999999999995" y="413.35" type="curve"/>
      <point x="497.54999999999995" y="416.3" type="line"/>
      <point x="651.875" y="690.7750000000001" type="line"/>
      <point x="651.875" y="700.0" type="line"/>
      <point x="81.05000000000001" y="700.0" type="line"/>
      <point x="81.05000000000001" y="0.0" type="line"/>
      <point x="190.60000000000002" y="0.0" type="line"/>
      <point x="190.60000000000002" y="595.975" type="line"/>
      <point x="481.025" y="595.975" type="line"/>
      <point x="481.025" y="593.45" type="line"/>
      <point x="471.6" y="582.975"/>
      <point x="463.6" y="570.55"/>
      <point x="454.075" y="552.45" type="curve" smooth="yes"/>
      <point x="345.57500000000005" y="360.025" type="line"/>
      <point x="345.57500000000005" y="349.4" type="line"/>
      <point x="498.4" y="368.8"/>
      <point x="569.25" y="294.175"/>
      <point x="569.25" y="209.22500000000002" type="curve" smooth="yes"/>
      <point x="569.25" y="127.4"/>
      <point x="514.25" y="84.375"/>
      <point x="430.475" y="84.375" type="curve" smooth="yes"/>
      <point x="395.05" y="84.375"/>
      <point x="367.775" y="89.75"/>
      <point x="338.04999999999995" y="99.375" type="curve"/>
      <point x="338.04999999999995" y="3.475" type="line"/>
      <point x="362.0" y="-8.525"/>
      <point x="402.175" y="-13.0"/>
    </contour>
  </outline>
</glyph>
<glyph name="tugrik" format="2">
  <advance width="609.5250000000001"/>
  <unicode hex="20AE"/>
  <outline>
    <contour>
      <point x="250.25" y="30.0" type="line"/>
      <point x="359.8" y="30.0" type="line"/>
      <point x="359.8" y="618.6500000000001" type="line"/>
      <point x="250.25" y="618.6500000000001" type="line"/>
    </contour>
    <contour>
      <point x="46.05" y="565.975" type="line"/>
      <point x="563.475" y="565.975" type="line"/>
      <point x="563.475" y="670.0" type="line"/>
      <point x="46.05" y="670.0" type="line"/>
    </contour>
    <contour>
      <point x="72.6" y="161.15" type="line"/>
      <point x="536.925" y="258.525" type="line"/>
      <point x="536.925" y="341.7" type="line"/>
      <point x="72.6" y="244.325" type="line"/>
    </contour>
    <contour>
      <point x="72.6" y="300.325" type="line"/>
      <point x="536.925" y="397.7" type="line"/>
      <point x="536.925" y="478.025" type="line"/>
      <point x="72.6" y="383.025" type="line"/>
    </contour>
  </outline>
</glyph>
<glyph name="cedi" format="2">
  <advance width="655.325"/>
  <unicode hex="20B5"/>
  <outline>
    <contour>
      <point x="372.79999999999995" y="27.0" type="curve" smooth="yes"/>
      <point x="490.6" y="27.0"/>
      <point x="577.175" y="72.325"/>
      <point x="633.85" y="141.05" type="curve"/>
      <point x="553.425" y="209.525" type="line"/>
      <point x="508.125" y="158.65"/>
      <point x="451.075" y="132.45"/>
      <point x="375.8" y="132.45" type="curve" smooth="yes"/>
      <point x="260.025" y="132.45"/>
      <point x="155.075" y="200.52499999999998"/>
      <point x="155.075" y="349.0" type="curve" smooth="yes"/>
      <point x="155.075" y="496.95"/>
      <point x="254.775" y="567.55"/>
      <point x="372.79999999999995" y="567.55" type="curve" smooth="yes"/>
      <point x="446.9" y="567.55"/>
      <point x="503.97499999999997" y="544.125"/>
      <point x="550.7" y="489.625" type="curve"/>
      <point x="630.2249999999999" y="562.05" type="line"/>
      <point x="565.8" y="638.4749999999999"/>
      <point x="476.95" y="673.0"/>
      <point x="372.79999999999995" y="673.0" type="curve" smooth="yes"/>
      <point x="193.1" y="673.0"/>
      <point x="41.475" y="551.575"/>
      <point x="41.475" y="349.0" type="curve" smooth="yes"/>
      <point x="41.475" y="146.89999999999998"/>
      <point x="197.95" y="27.0"/>
    </contour>
    <contour>
      <point x="336.725" y="-69.0" type="line"/>
      <point x="417.275" y="-69.0" type="line"/>
      <point x="417.275" y="775.0" type="line"/>
      <point x="336.725" y="775.0" type="line"/>
    </contour>
  </outline>
</glyph>
<glyph name="ruble" format="2">
  <advance width="576.425"/>
  <unicode hex="20BD"/>
  <outline>
    <contour>
      <point x="81.05000000000001" y="30.0" type="line"/>
      <point x="190.60000000000002" y="30.0" type="line"/>
      <point x="190.60000000000002" y="256.075" type="line"/>
      <point x="315.5" y="256.075" type="line" smooth="yes"/>
      <point x="456.75" y="256.075"/>
      <point x="555.375" y="328.25"/>
      <point x="555.375" y="465.725" type="curve" smooth="yes"/>
      <point x="555.375" y="602.2"/>
      <point x="456.225" y="674.75"/>
      <point x="315.5" y="674.75" type="curve" smooth="yes"/>
      <point x="81.05000000000001" y="674.75" type="line"/>
    </contour>
    <contour>
      <point x="190.60000000000002" y="360.1" type="line"/>
      <point x="190.60000000000002" y="570.725" type="line"/>
      <point x="307.5" y="570.725" type="line" smooth="yes"/>
      <point x="390.85" y="570.725"/>
      <point x="443.3" y="540.15"/>
      <point x="443.3" y="465.25" type="curve" smooth="yes"/>
      <point x="443.3" y="388.825"/>
      <point x="390.85" y="360.1"/>
      <point x="307.5" y="360.1" type="curve" smooth="yes"/>
    </contour>
    <contour>
      <point x="20.0" y="256.075" type="line"/>
      <point x="183.0" y="256.075" type="line"/>
      <point x="183.0" y="334.25" type="line"/>
      <point x="20.0" y="334.25" type="line"/>
    </contour>
    <contour>
      <point x="20.0" y="125.575" type="line"/>
      <point x="447.0" y="125.575" type="line"/>
      <point x="446.0" y="203.75" type="line"/>
      <point x="20.0" y="203.75" type="line"/>
    </contour>
  </outline>
</glyph>
<glyph name="blackSmallStar" format="2">
  <advance width="480.0"/>
  <unicode hex="2B51"/>
  <outline>
    <contour>
      <point x="116.0" y="199.0" type="line"/>
      <point x="239.0" y="289.0" type="line"/>
      <point x="363.0" y="199.0" type="line"/>
      <point x="316.0" y="344.0" type="line"/>
      <point x="440.0" y="434.0" type="line"/>
      <point x="287.0" y="434.0" type="line"/>
      <point x="239.0" y="579.0" type="line"/>
      <point x="192.0" y="434.0" type="line"/>
      <point x="40.0" y="434.0" type="line"/>
      <point x="163.0" y="344.0" type="line"/>
    </contour>
  </outline>
</glyph>
<glyph name="saltillo" format="2">
  <advance width="264.9"/>
  <unicode hex="A78C"/>
  <outline>
    <contour>
      <point x="98.57499999999999" y="263.0" type="line"/>
      <point x="166.325" y="263.0" type="line"/>
      <point x="189.325" y="577.0" type="line"/>
      <point x="189.325" y="700.0" type="line"/>
      <point x="75.575" y="700.0" type="line"/>
      <point x="75.575" y="577.0" type="line"/>
    </contour>
  </outline>
</glyph>
<glyph name="a.ss01" format="2">
  <advance width="545.0999999999999"/>
  <anchor x="259.125" y="0.0" name="bottom"/>
  <anchor x="375.875" y="0.0" name="ogonek"/>
  <anchor x="263.125" y="497.125" name="top"/>
  <outline>
    <contour>
      <point x="210.625" y="-12.524999999999999" type="curve" smooth="yes"/>
      <point x="303.54999999999995" y="-12.524999999999999"/>
      <point x="350.35" y="32.775"/>
      <point x="370.92499999999995" y="69.725" type="curve"/>
      <point x="376.92499999999995" y="69.725" type="line"/>
      <point x="376.92499999999995" y="0.0" type="line"/>
      <point x="479.04999999999995" y="0.0" type="line"/>
      <point x="479.04999999999995" y="323.375" type="line" smooth="yes"/>
      <point x="479.04999999999995" y="435.25"/>
      <point x="385.025" y="510.125"/>
      <point x="263.325" y="510.125" type="curve" smooth="yes"/>
      <point x="169.375" y="510.125"/>
      <point x="106.1" y="477.375"/>
      <point x="51.425" y="417.275" type="curve"/>
      <point x="122.05000000000001" y="347.5" type="line"/>
      <point x="158.39999999999998" y="388.85"/>
      <point x="203.025" y="412.85"/>
      <point x="263.125" y="412.85" type="curve" smooth="yes"/>
      <point x="326.6" y="412.85"/>
      <point x="372.925" y="379.325"/>
      <point x="372.925" y="327.275" type="curve" smooth="yes"/>
      <point x="372.925" y="282.9" type="line"/>
      <point x="394.95000000000005" y="306.25" type="line"/>
      <point x="281.05" y="298.775" type="line" smooth="yes"/>
      <point x="122.075" y="288.35"/>
      <point x="46.05" y="231.75"/>
      <point x="46.05" y="136.125" type="curve" smooth="yes"/>
      <point x="46.05" y="51.325"/>
      <point x="116.575" y="-12.524999999999999"/>
    </contour>
    <contour>
      <point x="239.825" y="77.32499999999999" type="curve" smooth="yes"/>
      <point x="181.425" y="77.32499999999999"/>
      <point x="149.325" y="101.0"/>
      <point x="149.325" y="142.5" type="curve" smooth="yes"/>
      <point x="149.325" y="190.8"/>
      <point x="206.6" y="209.625"/>
      <point x="290.375" y="215.2" type="curve" smooth="yes"/>
      <point x="393.9" y="222.2" type="line"/>
      <point x="372.925" y="245.275" type="line"/>
      <point x="372.925" y="207.27499999999998" type="line" smooth="yes"/>
      <point x="372.925" y="136.825"/>
      <point x="323.525" y="77.32499999999999"/>
    </contour>
  </outline>
</glyph>
<glyph name="four.numr" format="2">
  <advance width="325.42499999999995"/>
  <outline>
    <contour>
      <point x="181.89999999999998" y="313.95000000000005" type="line"/>
      <point x="249.2" y="313.95000000000005" type="line"/>
      <point x="249.2" y="424.15" type="line"/>
      <point x="293.25" y="424.15" type="line"/>
      <point x="293.25" y="483.6" type="line"/>
      <point x="249.2" y="483.6" type="line"/>
      <point x="249.2" y="706.95" type="line"/>
      <point x="195.05" y="706.95" type="line"/>
      <point x="7.575" y="449.375" type="line"/>
      <point x="7.575" y="424.15" type="line"/>
      <point x="181.89999999999998" y="424.15" type="line"/>
    </contour>
    <contour>
      <point x="105.25" y="483.6" type="line"/>
      <point x="105.25" y="484.6" type="line"/>
      <point x="106.82499999999999" y="486.17499999999995"/>
      <point x="109.35" y="487.75"/>
      <point x="110.875" y="490.275" type="curve" smooth="yes"/>
      <point x="169.375" y="570.025" type="line" smooth="yes"/>
      <point x="173.95" y="575.65"/>
      <point x="177.9" y="584.6"/>
      <point x="181.95" y="593.275" type="curve"/>
      <point x="183.89999999999998" y="593.275" type="line"/>
      <point x="182.9" y="587.7"/>
      <point x="182.425" y="578.75"/>
      <point x="182.425" y="572.175" type="curve" smooth="yes"/>
      <point x="182.425" y="483.6" type="line"/>
    </contour>
  </outline>
</glyph>
<glyph name="horn.alt_case" format="2">
  <advance width="504.975"/>
  <anchor x="168.45" y="700.0" name="_topright"/>
  <outline>
    <contour>
      <point x="136.175" y="618.275" type="line"/>
      <point x="248.0" y="610.75"/>
      <point x="314.65" y="663.7750000000001"/>
      <point x="314.65" y="746.9" type="curve" smooth="yes"/>
      <point x="314.65" y="775.25"/>
      <point x="309.65" y="796.9"/>
      <point x="304.65" y="811.9" type="curve"/>
      <point x="209.64999999999998" y="811.9" type="line"/>
      <point x="216.175" y="794.9000000000001"/>
      <point x="220.225" y="776.9"/>
      <point x="220.225" y="759.275" type="curve" smooth="yes"/>
      <point x="220.7" y="723.575"/>
      <point x="204.125" y="700.0"/>
      <point x="150.125" y="700.0" type="curve"/>
    </contour>
  </outline>
</glyph>
<glyph name="one.ss10.numr" format="2">
  <advance width="176.0"/>
  <outline>
    <contour>
      <point x="59.225" y="321.82500000000005" type="line"/>
      <point x="126.0" y="321.82500000000005" type="line"/>
      <point x="126.0" y="699.475" type="line"/>
      <point x="7.799999999999999" y="700.0" type="line"/>
      <point x="7.799999999999999" y="634.8" type="line"/>
      <point x="59.225" y="634.2750000000001" type="line"/>
      <point x="59.225" y="633.275" type="line"/>
    </contour>
  </outline>
</glyph>
<glyph name="zero.tf" format="2">
  <advance width="596.0"/>
  <outline>
    <contour>
      <point x="298.0" y="-13.0" type="curve" smooth="yes"/>
      <point x="447.975" y="-12.475000000000001"/>
      <point x="554.25" y="100.075"/>
      <point x="554.25" y="248.5" type="curve" smooth="yes"/>
      <point x="554.25" y="455.79999999999995" type="line" smooth="yes"/>
      <point x="554.25" y="597.925"/>
      <point x="447.975" y="711.525"/>
      <point x="298.0" y="711.0" type="curve" smooth="yes"/>
      <point x="148.025" y="710.4749999999999"/>
      <point x="41.75" y="597.925"/>
      <point x="41.75" y="453.17499999999995" type="curve" smooth="yes"/>
      <point x="41.75" y="244.825" type="line" smooth="yes"/>
      <point x="41.75" y="100.075"/>
      <point x="148.025" y="-13.525"/>
    </contour>
    <contour>
      <point x="298.0" y="89.175" type="curve" smooth="yes"/>
      <point x="210.425" y="89.175"/>
      <point x="156.825" y="156.7"/>
      <point x="156.825" y="258.725" type="curve" smooth="yes"/>
      <point x="156.825" y="444.575" type="line" smooth="yes"/>
      <point x="156.825" y="547.15"/>
      <point x="210.425" y="608.825"/>
      <point x="298.0" y="608.825" type="curve" smooth="yes"/>
      <point x="385.575" y="608.825"/>
      <point x="439.175" y="545.575"/>
      <point x="439.175" y="441.95" type="curve" smooth="yes"/>
      <point x="439.175" y="255.575" type="line" smooth="yes"/>
      <point x="439.175" y="155.125"/>
      <point x="385.575" y="89.175"/>
    </contour>
  </outline>
</glyph>
